<svg xmlns="http://www.w3.org/2000/svg" version="1.2" viewBox="0 0 258.3 71.1"><defs><linearGradient id="g1" x2="1" gradientUnits="userSpaceOnUse" gradientTransform="matrix(24.661 -31.562 14.931 14.877 21.6 55.596)"><stop offset="0" stop-color="#92278f"/><stop offset=".035" stop-color="#763b9e"/><stop offset=".121" stop-color="#3669c0"/><stop offset=".185" stop-color="#0f86d6"/><stop offset=".217" stop-color="#0092df"/><stop offset=".381" stop-color="#02b4df"/><stop offset=".594" stop-color="#05dbdf"/><stop offset=".706" stop-color="#07ebdf"/><stop offset="1" stop-color="#98efed"/></linearGradient><linearGradient id="g2" x2="1" gradientUnits="userSpaceOnUse" gradientTransform="matrix(13.492 19.257 -12.467 11.526 33.494 51.479)"><stop offset="0" stop-color="#ef4136"/><stop offset=".013" stop-color="#f1512c"/><stop offset=".04" stop-color="#f66b1c"/><stop offset=".069" stop-color="#fa800f"/><stop offset=".102" stop-color="#fc8e06"/><stop offset=".141" stop-color="#fe9701"/><stop offset=".203" stop-color="#ff9a00"/><stop offset=".561" stop-color="#fabe3a"/><stop offset=".851" stop-color="#f7d862"/><stop offset="1" stop-color="#f6e272"/></linearGradient><linearGradient id="g3" x2="1" gradientUnits="userSpaceOnUse" gradientTransform="matrix(9.959 -13.221 16.626 11.927 21.256 55.262)"><stop offset="0" stop-color="#92278f"/><stop offset=".091" stop-color="#763b9e"/><stop offset=".319" stop-color="#3669c0"/><stop offset=".486" stop-color="#0f86d6"/><stop offset=".572" stop-color="#0092df"/><stop offset=".715" stop-color="#02b4df"/><stop offset=".903" stop-color="#05dbdf"/><stop offset="1" stop-color="#07ebdf"/></linearGradient><linearGradient id="g4" x2="1" gradientUnits="userSpaceOnUse" gradientTransform="matrix(34.457 -49.2 22.887 16.475 7.811 46.123)"><stop offset="0" stop-color="#92278f"/><stop offset=".035" stop-color="#763b9e"/><stop offset=".121" stop-color="#3669c0"/><stop offset=".185" stop-color="#0f86d6"/><stop offset=".217" stop-color="#0092df"/><stop offset=".381" stop-color="#02b4df"/><stop offset=".594" stop-color="#05dbdf"/><stop offset=".706" stop-color="#07ebdf"/><stop offset="1" stop-color="#98efed"/></linearGradient><linearGradient id="g5" x2="1" gradientUnits="userSpaceOnUse" gradientTransform="matrix(34.457 -49.2 22.887 16.475 7.811 46.123)"><stop offset="0" stop-color="#fff" stop-opacity=".502"/><stop offset=".004" stop-color="#fff" stop-opacity=".463"/><stop offset=".02" stop-color="#fff" stop-opacity=".341"/><stop offset=".037" stop-color="#fff" stop-opacity=".231"/><stop offset=".057" stop-color="#fff" stop-opacity=".145"/><stop offset=".081" stop-color="#fff" stop-opacity=".078"/><stop offset=".11" stop-color="#fff" stop-opacity=".035"/><stop offset=".15" stop-color="#fff" stop-opacity=".008"/><stop offset=".262" stop-color="#fff" stop-opacity="0"/><stop offset="1" stop-color="#fff" stop-opacity="0"/></linearGradient><linearGradient id="g6" x2="1" gradientUnits="userSpaceOnUse" gradientTransform="matrix(22.791 -32.545 16.32 14.575 22.373 55.923)"><stop offset="0" stop-color="#fff" stop-opacity=".502"/><stop offset=".004" stop-color="#fff" stop-opacity=".463"/><stop offset=".02" stop-color="#fff" stop-opacity=".341"/><stop offset=".037" stop-color="#fff" stop-opacity=".231"/><stop offset=".057" stop-color="#fff" stop-opacity=".145"/><stop offset=".081" stop-color="#fff" stop-opacity=".078"/><stop offset=".11" stop-color="#fff" stop-opacity=".035"/><stop offset=".15" stop-color="#fff" stop-opacity=".008"/><stop offset=".262" stop-color="#fff" stop-opacity="0"/><stop offset="1" stop-color="#fff" stop-opacity="0"/></linearGradient></defs><style>.s0{fill:#98efed}</style><path class="s0" d="M29.8 60.8q-.8-.5-1.3-1.4-.5-.9-.5-1.9 0-1.1.5-2 .5-.9 1.3-1.4l11.8-8q1.5-1 2.7-2.4 1.3-1.3 2.1-3 .9-1.6 1.4-3.4.4-1.8.4-3.6v-7.1q0-.6-.3-1.1-.3-.5-.9-.8-.5-.3-1.1-.3-.6.1-1.1.4L19 42.2c-1 .7-1.7 1.5-2.2 2.5-.6 1-.8 2.1-.8 3.2s.2 2.2.8 3.2c.5 1 1.2 1.8 2.2 2.4z"/><path d="M29.8 60.8q-.8-.5-1.3-1.4-.5-.9-.5-1.9 0-1.1.5-2 .5-.9 1.3-1.4l11.8-8q1.5-1 2.7-2.4 1.3-1.3 2.1-3 .9-1.6 1.4-3.4.4-1.8.4-3.6v-7.1q0-.6-.3-1.1-.3-.5-.9-.8-.5-.3-1.1-.3-.6.1-1.1.4L19 42.2c-1 .7-1.7 1.5-2.2 2.5-.6 1-.8 2.1-.8 3.2s.2 2.2.8 3.2c.5 1 1.2 1.8 2.2 2.4z" style="fill:url(#g1)"/><path d="m29.7 60.8 14.7 9.9q.5.3 1.2.4.7 0 1.3-.3.6-.3.9-.9.4-.6.4-1.3v-6.5q0-1.8-.4-3.6-.5-1.8-1.3-3.4-.8-1.6-2-2.9-1.2-1.4-2.7-2.4L39 47.9l-9.2 6.2q-.8.5-1.3 1.4-.5.9-.5 1.9 0 1 .4 1.9.5.9 1.3 1.5z" style="fill:url(#g2)"/><path d="m19.1 42.1-.1.1c-1 .7-1.7 1.5-2.2 2.5-.6 1-.8 2.1-.8 3.2s.2 2.2.8 3.2c.5 1 1.2 1.8 2.2 2.4l.1.1 10.6 7.2q-.8-.6-1.3-1.5-.4-.9-.4-1.9 0-1 .5-1.9.5-.9 1.3-1.4l9.2-6.2-14.2-9.6z" style="fill:url(#g3)"/><path d="M12 48.9q-.4-1.3-.4-2.7 0-1.3.4-2.6.5-1.2 1.3-2.3.8-1.1 1.9-1.8l24.6-16.6q1.9-1.3 3.5-3 1.6-1.8 2.7-3.9 1.1-2 1.6-4.3.6-2.3.6-4.6V2.2q0-.6-.3-1.1-.3-.6-.9-.8-.5-.3-1.1-.3-.6 0-1.1.4L4.2 27.8c-1.3.8-2.3 2-3.1 3.4C.4 32.6 0 34.1 0 35.7c0 1.5.4 3.1 1.1 4.4.8 1.4 1.8 2.6 3.1 3.5l7.8 5.3z" style="fill:url(#g4)"/><path d="M12 48.9q-.4-1.3-.4-2.7 0-1.3.4-2.6.5-1.2 1.3-2.3.8-1.1 1.9-1.8l24.6-16.6q1.9-1.3 3.5-3 1.6-1.8 2.7-3.9 1.1-2 1.6-4.3.6-2.3.6-4.6V2.2q0-.6-.3-1.1-.3-.6-.9-.8-.5-.3-1.1-.3-.6 0-1.1.4L4.2 27.8c-1.3.8-2.3 2-3.1 3.4C.4 32.6 0 34.1 0 35.7c0 1.5.4 3.1 1.1 4.4.8 1.4 1.8 2.6 3.1 3.5l7.8 5.3z" style="mix-blend-mode:overlay;fill:url(#g5)"/><path d="M29.8 60.8q-.8-.5-1.3-1.4-.5-.9-.5-1.9 0-1.1.5-2 .5-.9 1.3-1.4l11.8-8q1.5-1 2.7-2.4 1.3-1.3 2.1-3 .9-1.6 1.4-3.4.4-1.8.4-3.6v-7.1q0-.6-.3-1.1-.3-.5-.9-.8-.5-.3-1.1-.3-.6.1-1.1.4L19 42.2c-1 .7-1.7 1.5-2.2 2.5-.6 1-.8 2.1-.8 3.2s.2 2.2.8 3.2c.5 1 1.2 1.8 2.2 2.4z" style="mix-blend-mode:overlay;fill:url(#g6)"/><path id="FC Portal" aria-label="FC Portal" d="M71.1 54.3q-1.1 0-1.7-.6-.6-.6-.6-1.7V23.2q0-1.1.6-1.7.6-.6 1.7-.6H88q.9 0 1.4.4.5.5.5 1.3 0 .9-.5 1.4-.5.4-1.4.4H73.1v11.1H87q.9 0 1.4.5.5.5.5 1.3 0 .9-.5 1.3-.5.5-1.4.5H73.1V52q0 2.3-2 2.3zm37.4.1q-5 0-8.5-2-3.5-2.1-5.4-5.9-1.9-3.9-1.9-9.1 0-3.9 1.1-7 1-3.1 3.1-5.4 2-2.2 4.9-3.4 3-1.2 6.7-1.2 2.8 0 5.4.8 2.6.8 4.5 2.3.7.5 1 1.2.2.6 0 1.2-.1.6-.6 1-.4.4-1.1.5-.6 0-1.4-.6-1.6-1.2-3.6-1.8-1.9-.6-4.1-.6-3.6 0-6.2 1.5-2.5 1.5-3.8 4.5-1.3 2.8-1.3 7 0 4.1 1.3 7.1 1.3 2.9 3.8 4.5 2.6 1.5 6.2 1.5 2.2 0 4.2-.6t3.7-1.9q.7-.5 1.3-.5.7.1 1.1.4.4.4.6 1 .2.5 0 1.2-.2.6-.9 1-1.9 1.7-4.6 2.5-2.6.8-5.5.8zm30.7-.1q-1.4 0-1.4-1.5V22.4q0-1.5 1.5-1.5h11q5.3 0 8.1 2.5t2.8 7.2q0 4.7-2.8 7.3-2.8 2.5-8.1 2.5h-9.6v12.4q0 1.5-1.5 1.5zm1.5-30.9v14.5h9.4q8.2 0 8.2-7.3 0-7.2-8.2-7.2zm34 31q-3.2 0-5.6-1.4-2.3-1.5-3.7-4.1-1.2-2.7-1.2-6.3 0-3.6 1.2-6.2 1.4-2.7 3.7-4.2 2.4-1.4 5.6-1.4 3.2 0 5.5 1.4 2.4 1.5 3.7 4.2 1.3 2.6 1.3 6.2t-1.3 6.3q-1.3 2.6-3.7 4.1-2.3 1.4-5.5 1.4zm0-2.4q3.4 0 5.5-2.5t2.1-6.9q0-4.5-2.1-6.9-2.1-2.5-5.5-2.5-3.5 0-5.6 2.5-2 2.4-2 6.9 0 4.4 2 6.9 2.1 2.5 5.6 2.5zm18.1 2.3q-1.5 0-1.5-1.5V32.4q0-1.5 1.5-1.5 1.3 0 1.3 1.5v2.9q1-2.2 3.1-3.3 2-1.2 4.7-1.3.6 0 1 .3.3.3.3.9.1 1.3-1.3 1.4l-.7.1q-3.3.2-5.2 2.2-1.8 1.9-1.8 5.1v12.1q0 1.5-1.4 1.5zm24.4.1q-3.8 0-5.7-2.1-1.9-2.1-1.9-5.9V33.5h-3.5q-1.4 0-1.4-1.2 0-1.1 1.4-1.1h3.5v-5.9q0-1.4 1.4-1.4t1.4 1.4v5.9h6.4q1.3 0 1.3 1.1 0 1.2-1.3 1.2h-6.4V46q0 2.9 1.2 4.4 1.2 1.5 3.9 1.5 1 0 1.6-.2.6-.2 1.1-.2.8 0 .8 1.1 0 .4-.2.8-.1.3-.6.5-.5.1-1.4.3-.9.2-1.6.2zm14.2 0q-2.3 0-4.2-.9-1.7-.9-2.8-2.5-1.1-1.5-1.1-3.4 0-2.6 1.3-4t4.3-2.1q3-.6 8.3-.6h1.4v-1.7q0-3.1-1.2-4.5-1.3-1.5-4.1-1.5-1.8 0-3.5.5t-3.5 1.5q-.8.5-1.4 0-.4-.4-.4-1.1 0-.8.8-1.2 1.9-1 4-1.6 2-.5 4-.5 4.1 0 6.1 2.1t2 6.5v13.4q0 1.5-1.3 1.5-1.4 0-1.4-1.5v-2.9q-1 2.1-2.9 3.3-1.9 1.2-4.4 1.2zm.4-2.3q2 0 3.5-1t2.4-2.6q.9-1.7.9-3.9V43h-1.4q-4.2 0-6.6.4-2.4.4-3.3 1.3-.9 1-.9 2.6 0 2.1 1.4 3.5 1.5 1.3 4 1.3zm23.6 2.3q-3.1 0-4.8-2-1.7-1.9-1.7-5.6V22q0-1.4 1.4-1.4t1.4 1.4v24.5q0 5.4 4.3 5.4.4 0 .7-.1h.7q.4-.1.6.2.3.2.3.8 0 1.2-1.4 1.5-.4.1-.7.1h-.8z" style="fill:#fff"/></svg>