<svg version="1.2" xmlns="http://www.w3.org/2000/svg" viewBox="0 0 280 72" width="280" height="72">
	<title>flying-colours-svg</title>
	<defs>
		<linearGradient id="g1" x2="1" gradientUnits="userSpaceOnUse" gradientTransform="matrix(24.661,-31.562,14.931,14.877,21.6,55.596)">
			<stop offset="0" stop-color="#92278f"/>
			<stop offset=".035" stop-color="#763b9e"/>
			<stop offset=".121" stop-color="#3669c0"/>
			<stop offset=".185" stop-color="#0f86d6"/>
			<stop offset=".217" stop-color="#0092df"/>
			<stop offset=".381" stop-color="#02b4df"/>
			<stop offset=".594" stop-color="#05dbdf"/>
			<stop offset=".706" stop-color="#07ebdf"/>
			<stop offset="1" stop-color="#98efed"/>
		</linearGradient>
		<linearGradient id="g2" x2="1" gradientUnits="userSpaceOnUse" gradientTransform="matrix(13.492,19.257,-12.467,11.526,33.494,51.479)">
			<stop offset="0" stop-color="#ef4136"/>
			<stop offset=".013" stop-color="#f1512c"/>
			<stop offset=".04" stop-color="#f66b1c"/>
			<stop offset=".069" stop-color="#fa800f"/>
			<stop offset=".102" stop-color="#fc8e06"/>
			<stop offset=".141" stop-color="#fe9701"/>
			<stop offset=".203" stop-color="#ff9a00"/>
			<stop offset=".561" stop-color="#fabe3a"/>
			<stop offset=".851" stop-color="#f7d862"/>
			<stop offset="1" stop-color="#f6e272"/>
		</linearGradient>
		<linearGradient id="g3" x2="1" gradientUnits="userSpaceOnUse" gradientTransform="matrix(9.959,-13.221,16.626,11.927,21.256,55.262)">
			<stop offset="0" stop-color="#92278f"/>
			<stop offset=".091" stop-color="#763b9e"/>
			<stop offset=".319" stop-color="#3669c0"/>
			<stop offset=".486" stop-color="#0f86d6"/>
			<stop offset=".572" stop-color="#0092df"/>
			<stop offset=".715" stop-color="#02b4df"/>
			<stop offset=".903" stop-color="#05dbdf"/>
			<stop offset="1" stop-color="#07ebdf"/>
		</linearGradient>
		<linearGradient id="g4" x2="1" gradientUnits="userSpaceOnUse" gradientTransform="matrix(34.457,-49.2,22.887,16.475,7.811,46.123)">
			<stop offset="0" stop-color="#92278f"/>
			<stop offset=".035" stop-color="#763b9e"/>
			<stop offset=".121" stop-color="#3669c0"/>
			<stop offset=".185" stop-color="#0f86d6"/>
			<stop offset=".217" stop-color="#0092df"/>
			<stop offset=".381" stop-color="#02b4df"/>
			<stop offset=".594" stop-color="#05dbdf"/>
			<stop offset=".706" stop-color="#07ebdf"/>
			<stop offset="1" stop-color="#98efed"/>
		</linearGradient>
		<linearGradient id="g5" x2="1" gradientUnits="userSpaceOnUse" gradientTransform="matrix(34.457,-49.2,22.887,16.475,7.811,46.123)">
			<stop offset="0" stop-color="#ffffff" stop-opacity=".502"/>
			<stop offset=".004" stop-color="#ffffff" stop-opacity=".463"/>
			<stop offset=".02" stop-color="#ffffff" stop-opacity=".341"/>
			<stop offset=".037" stop-color="#ffffff" stop-opacity=".231"/>
			<stop offset=".057" stop-color="#ffffff" stop-opacity=".145"/>
			<stop offset=".081" stop-color="#ffffff" stop-opacity=".078"/>
			<stop offset=".11" stop-color="#ffffff" stop-opacity=".035"/>
			<stop offset=".15" stop-color="#ffffff" stop-opacity=".008"/>
			<stop offset=".262" stop-color="#ffffff" stop-opacity="0"/>
			<stop offset="1" stop-color="#ffffff" stop-opacity="0"/>
		</linearGradient>
		<linearGradient id="g6" x2="1" gradientUnits="userSpaceOnUse" gradientTransform="matrix(22.791,-32.545,16.32,14.575,22.373,55.923)">
			<stop offset="0" stop-color="#ffffff" stop-opacity=".502"/>
			<stop offset=".004" stop-color="#ffffff" stop-opacity=".463"/>
			<stop offset=".02" stop-color="#ffffff" stop-opacity=".341"/>
			<stop offset=".037" stop-color="#ffffff" stop-opacity=".231"/>
			<stop offset=".057" stop-color="#ffffff" stop-opacity=".145"/>
			<stop offset=".081" stop-color="#ffffff" stop-opacity=".078"/>
			<stop offset=".11" stop-color="#ffffff" stop-opacity=".035"/>
			<stop offset=".15" stop-color="#ffffff" stop-opacity=".008"/>
			<stop offset=".262" stop-color="#ffffff" stop-opacity="0"/>
			<stop offset="1" stop-color="#ffffff" stop-opacity="0"/>
		</linearGradient>
	</defs>
	<style>
		tspan { white-space:pre } 
		.s0 { fill: #98efed } 
		.s1 { fill: url(#g1) } 
		.s2 { fill: url(#g2) } 
		.s3 { fill: url(#g3) } 
		.s4 { fill: none;stroke: #98efed;stroke-linecap: round;stroke-linejoin: round;stroke-width: .4 } 
		.s5 { fill: url(#g4) } 
		.s6 { mix-blend-mode: overlay;fill: none;stroke: #98efed;stroke-linecap: round;stroke-linejoin: round;stroke-width: .4 } 
		.s7 { mix-blend-mode: overlay;fill: url(#g5) } 
		.s8 { mix-blend-mode: overlay;fill: url(#g6) } 
		.t9 { font-size: 47px;fill: #ffffff;font-weight: 500;font-family: "Nunito-Medium", "Nunito" } 
		.t10 { font-size: 47px;fill: #ffffff;font-weight: 300;font-family: "Nunito-Light", "Nunito" } 
	</style>
	<g>
		<path class="s0" d=""/>
		<path class="s0" d=""/>
		<path class="s0" d="m29.8 60.8q-0.8-0.5-1.3-1.4-0.5-0.9-0.5-1.9 0-1.1 0.5-2 0.5-0.9 1.3-1.4l11.8-8q1.5-1 2.7-2.4 1.3-1.3 2.1-3 0.9-1.6 1.4-3.4 0.4-1.8 0.4-3.6v-7.1q0-0.6-0.3-1.1-0.3-0.5-0.9-0.8-0.5-0.3-1.1-0.3-0.6 0.1-1.1 0.4l-25.8 17.4c-1 0.7-1.7 1.5-2.2 2.5-0.6 1-0.8 2.1-0.8 3.2 0 1.1 0.2 2.2 0.8 3.2 0.5 1 1.2 1.8 2.2 2.4z"/>
		<path class="s1" d="m29.8 60.8q-0.8-0.5-1.3-1.4-0.5-0.9-0.5-1.9 0-1.1 0.5-2 0.5-0.9 1.3-1.4l11.8-8q1.5-1 2.7-2.4 1.3-1.3 2.1-3 0.9-1.6 1.4-3.4 0.4-1.8 0.4-3.6v-7.1q0-0.6-0.3-1.1-0.3-0.5-0.9-0.8-0.5-0.3-1.1-0.3-0.6 0.1-1.1 0.4l-25.8 17.4c-1 0.7-1.7 1.5-2.2 2.5-0.6 1-0.8 2.1-0.8 3.2 0 1.1 0.2 2.2 0.8 3.2 0.5 1 1.2 1.8 2.2 2.4z"/>
		<g>
			<path class="s2" d="m29.7 60.8l14.7 9.9q0.5 0.3 1.2 0.4 0.7 0 1.3-0.3 0.6-0.3 0.9-0.9 0.4-0.6 0.4-1.3v-6.5q0-1.8-0.4-3.6-0.5-1.8-1.3-3.4-0.8-1.6-2-2.9-1.2-1.4-2.7-2.4l-2.8-1.9-9.2 6.2q-0.8 0.5-1.3 1.4-0.5 0.9-0.5 1.9 0 1 0.4 1.9 0.5 0.9 1.3 1.5z"/>
			<path class="s3" d="m19.1 42.1l-0.1 0.1c-1 0.7-1.7 1.5-2.2 2.5-0.6 1-0.8 2.1-0.8 3.2 0 1.1 0.2 2.2 0.8 3.2 0.5 1 1.2 1.8 2.2 2.4l0.1 0.1 10.6 7.2q-0.8-0.6-1.3-1.5-0.4-0.9-0.4-1.9 0-1 0.5-1.9 0.5-0.9 1.3-1.4l9.2-6.2-14.2-9.6z"/>
		</g>
		<g>
			<path class="s4" d=""/>
			<path class="s5" d="m12 48.9q-0.4-1.3-0.4-2.7 0-1.3 0.4-2.6 0.5-1.2 1.3-2.3 0.8-1.1 1.9-1.8l24.6-16.6q1.9-1.3 3.5-3 1.6-1.8 2.7-3.9 1.1-2 1.6-4.3 0.6-2.3 0.6-4.6v-4.9q0-0.6-0.3-1.1-0.3-0.6-0.9-0.8-0.5-0.3-1.1-0.3-0.6 0-1.1 0.4l-40.6 27.4c-1.3 0.8-2.3 2-3.1 3.4-0.7 1.4-1.1 2.9-1.1 4.5 0 1.5 0.4 3.1 1.1 4.4 0.8 1.4 1.8 2.6 3.1 3.5 0 0 7.8 5.3 7.8 5.3z"/>
		</g>
		<g>
			<path class="s6" d=""/>
			<path class="s7" d="m12 48.9q-0.4-1.3-0.4-2.7 0-1.3 0.4-2.6 0.5-1.2 1.3-2.3 0.8-1.1 1.9-1.8l24.6-16.6q1.9-1.3 3.5-3 1.6-1.8 2.7-3.9 1.1-2 1.6-4.3 0.6-2.3 0.6-4.6v-4.9q0-0.6-0.3-1.1-0.3-0.6-0.9-0.8-0.5-0.3-1.1-0.3-0.6 0-1.1 0.4l-40.6 27.4c-1.3 0.8-2.3 2-3.1 3.4-0.7 1.4-1.1 2.9-1.1 4.5 0 1.5 0.4 3.1 1.1 4.4 0.8 1.4 1.8 2.6 3.1 3.5 0 0 7.8 5.3 7.8 5.3z"/>
		</g>
		<path class="s8" d="m29.8 60.8q-0.8-0.5-1.3-1.4-0.5-0.9-0.5-1.9 0-1.1 0.5-2 0.5-0.9 1.3-1.4l11.8-8q1.5-1 2.7-2.4 1.3-1.3 2.1-3 0.9-1.6 1.4-3.4 0.4-1.8 0.4-3.6v-7.1q0-0.6-0.3-1.1-0.3-0.5-0.9-0.8-0.5-0.3-1.1-0.3-0.6 0.1-1.1 0.4l-25.8 17.4c-1 0.7-1.7 1.5-2.2 2.5-0.6 1-0.8 2.1-0.8 3.2 0 1.1 0.2 2.2 0.8 3.2 0.5 1 1.2 1.8 2.2 2.4z"/>
		<text id="FC Portal" style="transform: matrix(1,0,0,1,64.77,53.77)" >
			<tspan x="0" y="0" class="t9">F</tspan><tspan  y="0" class="t9">C</tspan><tspan  y="0" class="t10"> </tspan><tspan  y="0" class="t10">P</tspan><tspan  y="0" class="t10">o</tspan><tspan  y="0" class="t10">r</tspan><tspan  y="0" class="t10">t</tspan><tspan  y="0" class="t10">a</tspan><tspan  y="0" class="t10">l</tspan><tspan  y="0" class="t10">
</tspan>
		</text>
	</g>
</svg>